<svg width="100" height="100" viewBox="0 0 100 100" fill="none" xmlns="http://www.w3.org/2000/svg">
<path d="M43.353 3.06854C46.8634 -1.02285 53.1366 -1.02285 56.647 3.06854L60.9705 8.10759C62.9629 10.4298 65.9967 11.548 68.997 11.066L75.5075 10.0202C80.7937 9.17099 85.5992 13.2544 85.6913 18.6736L85.8047 25.348C85.857 28.4238 87.4713 31.2552 90.0756 32.839L95.7268 36.2757C100.315 39.0661 101.405 45.3221 98.0352 49.5335L93.8856 54.7202C91.9732 57.1105 91.4126 60.3302 92.4023 63.2386L94.5499 69.5498C96.2937 74.6741 93.1571 80.1756 87.903 81.2085L81.4319 82.4807C78.4497 83.0669 75.9765 85.1684 74.8886 88.0407L72.5277 94.2733C70.6108 99.3338 64.716 101.506 60.0355 98.8777L54.2708 95.64C51.6142 94.1479 48.3858 94.1479 45.7292 95.64L39.9645 98.8777C35.284 101.506 29.3892 99.3338 27.4723 94.2733L25.1114 88.0407C24.0235 85.1684 21.5503 83.0669 18.5681 82.4807L12.097 81.2085C6.84289 80.1756 3.70632 74.6741 5.45005 69.5498L7.59768 63.2386C8.58739 60.3302 8.02678 57.1105 6.11443 54.7202L1.96476 49.5335C-1.4045 45.3221 -0.315183 39.0661 4.27324 36.2757L9.92443 32.839C12.5288 31.2552 14.143 28.4238 14.1953 25.348L14.3087 18.6736C14.4008 13.2544 19.2063 9.17099 24.4925 10.0202L31.003 11.066C34.0033 11.548 37.0371 10.4298 39.0295 8.10759L43.353 3.06854Z" fill="url(#paint0_linear_370_2)"/>
<path d="M63.8843 51.2543L70.2996 27.811L53.8196 45.1902L41.5742 34.9165L30.3935 75.7717L46.8735 58.3924L59.1168 68.6662L61.915 58.4485L58.727 62.4491L51.0939 56.2167L58.5296 46.8794L63.8843 51.2543ZM45.6849 51.9163L41.8411 48.7756L44.9415 44.8842L48.7853 48.0239L45.6849 51.9163Z" fill="white"/>
<defs>
<linearGradient id="paint0_linear_370_2" x1="50" y1="0" x2="50" y2="100" gradientUnits="userSpaceOnUse">
<stop stop-color="#006DE1"/>
<stop offset="1" stop-color="#4F20D2"/>
</linearGradient>
</defs>
</svg>
